REM DIRINDEX 1\2,1\3
REM DIRNAME cjc102,folder01,folder02
TITLE ""
FILE "CD2Track39.mp3" MP3
  TRACK 01 AUDIO
    TITLE "0:"
    INDEX 01 00:00:00
  TRACK 02 AUDIO
    TITLE "2:cjc102_4131"
    INDEX 01 00:00:25
  TRACK 03 AUDIO
    TITLE "0:"
    INDEX 01 00:01:13
  TRACK 04 AUDIO
    TITLE "3:cjc102_4132"
    INDEX 01 00:01:24
  TRACK 05 AUDIO
    TITLE "0:"
    INDEX 01 00:02:65
  TRACK 06 AUDIO
    TITLE "3:cjc102_4133"
    INDEX 01 00:03:17
  TRACK 07 AUDIO
    TITLE "0:"
    INDEX 01 00:07:00
  TRACK 08 AUDIO
    TITLE "2:cjc102_4134"
    INDEX 01 00:07:02
  TRACK 09 AUDIO
    TITLE "0:"
    INDEX 01 00:08:07
  TRACK 10 AUDIO
    TITLE "3:cjc102_4135"
    INDEX 01 00:09:08
  TRACK 11 AUDIO
    TITLE "0:"
    INDEX 01 00:10:04
  TRACK 12 AUDIO
    TITLE "2:cjc102_4136"
    INDEX 01 00:10:43
  TRACK 13 AUDIO
    TITLE "0:"
    INDEX 01 00:11:46
  TRACK 14 AUDIO
    TITLE "3:cjc102_4137"
    INDEX 01 00:12:14
  TRACK 15 AUDIO
    TITLE "0:"
    INDEX 01 00:12:73
  TRACK 16 AUDIO
    TITLE "2:cjc102_4138"
    INDEX 01 00:13:39
  TRACK 17 AUDIO
    TITLE "0:"
    INDEX 01 00:14:54
  TRACK 18 AUDIO
    TITLE "3:cjc102_4139"
    INDEX 01 00:15:52
  TRACK 19 AUDIO
    TITLE "0:"
    INDEX 01 00:16:51
  TRACK 20 AUDIO
    TITLE "2:cjc102_4140"
    INDEX 01 00:16:65
  TRACK 21 AUDIO
    TITLE "0:"
    INDEX 01 00:18:01
  TRACK 22 AUDIO
    TITLE "3:cjc102_4141"
    INDEX 01 00:18:52
  TRACK 23 AUDIO
    TITLE "0:"
    INDEX 01 00:19:46
  TRACK 24 AUDIO
    TITLE "2:cjc102_4142"
    INDEX 01 00:19:52
  TRACK 25 AUDIO
    TITLE "0:"
    INDEX 01 00:20:65
  TRACK 26 AUDIO
    TITLE "3:cjc102_4143"
    INDEX 01 00:21:66
  TRACK 27 AUDIO
    TITLE "0:"
    INDEX 01 00:22:46
  TRACK 28 AUDIO
    TITLE "2:cjc102_4144"
    INDEX 01 00:22:60
  TRACK 29 AUDIO
    TITLE "0:"
    INDEX 01 00:23:71
  TRACK 30 AUDIO
    TITLE "3:cjc102_4145"
    INDEX 01 00:25:11
  TRACK 31 AUDIO
    TITLE "0:"
    INDEX 01 00:26:07
  TRACK 32 AUDIO
    TITLE "2:cjc102_4146"
    INDEX 01 00:26:28
  TRACK 33 AUDIO
    TITLE "0:"
    INDEX 01 00:27:39
  TRACK 34 AUDIO
    TITLE "3:cjc102_4147"
    INDEX 01 00:28:33
  TRACK 35 AUDIO
    TITLE "0:"
    INDEX 01 00:29:29
  TRACK 36 AUDIO
    TITLE "2:cjc102_4148"
    INDEX 01 00:29:42
  TRACK 37 AUDIO
    TITLE "0:"
    INDEX 01 00:30:46
  TRACK 38 AUDIO
    TITLE "3:cjc102_4149"
    INDEX 01 00:31:39
  TRACK 39 AUDIO
    TITLE "0:"
    INDEX 01 00:32:37
  TRACK 40 AUDIO
    TITLE "2:cjc102_4150"
    INDEX 01 00:33:05
  TRACK 41 AUDIO
    TITLE "0:"
    INDEX 01 00:34:28
  TRACK 42 AUDIO
    TITLE "3:cjc102_4151"
    INDEX 01 00:34:55
  TRACK 43 AUDIO
    TITLE "0:"
    INDEX 01 00:35:49
  TRACK 44 AUDIO
    TITLE "2:cjc102_4152"
    INDEX 01 00:36:54
  TRACK 45 AUDIO
    TITLE "0:"
    INDEX 01 00:37:56
  TRACK 46 AUDIO
    TITLE "3:cjc102_4153"
    INDEX 01 00:38:59
  TRACK 47 AUDIO
    TITLE "0:"
    INDEX 01 00:39:52
  TRACK 48 AUDIO
    TITLE "2:cjc102_4154"
    INDEX 01 00:40:36
  TRACK 49 AUDIO
    TITLE "0:"
    INDEX 01 00:41:53
  TRACK 50 AUDIO
    TITLE "3:cjc102_4155"
    INDEX 01 00:42:12
  TRACK 51 AUDIO
    TITLE "0:"
    INDEX 01 00:43:29
  TRACK 52 AUDIO
    TITLE "2:cjc102_4156"
    INDEX 01 00:44:11
  TRACK 53 AUDIO
    TITLE "0:"
    INDEX 01 00:45:10
  TRACK 54 AUDIO
    TITLE "3:cjc102_4157"
    INDEX 01 00:46:02
  TRACK 55 AUDIO
    TITLE "0:"
    INDEX 01 00:47:13
  TRACK 56 AUDIO
    TITLE "2:cjc102_4158"
    INDEX 01 00:47:48
  TRACK 57 AUDIO
    TITLE "0:"
    INDEX 01 00:48:59
  TRACK 58 AUDIO
    TITLE "3:cjc102_4159"
    INDEX 01 00:49:45
  TRACK 59 AUDIO
    TITLE "0:"
    INDEX 01 00:50:64
  TRACK 60 AUDIO
    TITLE "2:cjc102_4160"
    INDEX 01 00:51:67
  TRACK 61 AUDIO
    TITLE "0:"
    INDEX 01 00:53:13
  TRACK 62 AUDIO
    TITLE "3:cjc102_4161"
    INDEX 01 00:54:13
  TRACK 63 AUDIO
    TITLE "0:"
    INDEX 01 00:55:32
  TRACK 64 AUDIO
    TITLE "2:cjc102_4162"
    INDEX 01 00:55:61
  TRACK 65 AUDIO
    TITLE "0:"
    INDEX 01 00:57:07
  TRACK 66 AUDIO
    TITLE "3:cjc102_4163"
    INDEX 01 00:57:74
  TRACK 67 AUDIO
    TITLE "0:"
    INDEX 01 00:59:08
  TRACK 68 AUDIO
    TITLE "2:cjc102_4164"
    INDEX 01 00:59:61
  TRACK 69 AUDIO
    TITLE "0:"
    INDEX 01 01:00:70
  TRACK 70 AUDIO
    TITLE "3:cjc102_4165"
    INDEX 01 01:01:56
  TRACK 71 AUDIO
    TITLE "0:"
    INDEX 01 01:02:67
  TRACK 72 AUDIO
    TITLE "2:cjc102_4166"
    INDEX 01 01:03:47
  TRACK 73 AUDIO
    TITLE "0:"
    INDEX 01 01:04:70
  TRACK 74 AUDIO
    TITLE "3:cjc102_4167"
    INDEX 01 01:06:53
  TRACK 75 AUDIO
    TITLE "0:"
    INDEX 01 01:07:72
  TRACK 76 AUDIO
    TITLE "2:cjc102_4168"
    INDEX 01 01:08:01
  TRACK 77 AUDIO
    TITLE "0:"
    INDEX 01 01:08:74
  TRACK 78 AUDIO
    TITLE "2:cjc102_4169"
    INDEX 01 01:09:67
  TRACK 79 AUDIO
    TITLE "0:"
    INDEX 01 01:11:03
  TRACK 80 AUDIO
    TITLE "3:cjc102_4170"
    INDEX 01 01:12:38
  TRACK 81 AUDIO
    TITLE "0:"
    INDEX 01 01:13:61
  TRACK 82 AUDIO
    TITLE "2:cjc102_4171"
    INDEX 01 01:14:10
  TRACK 83 AUDIO
    TITLE "0:"
    INDEX 01 01:15:17
  TRACK 84 AUDIO
    TITLE "2:cjc102_4172"
    INDEX 01 01:16:11
  TRACK 85 AUDIO
    TITLE "0:"
    INDEX 01 01:17:26
  TRACK 86 AUDIO
    TITLE "3:cjc102_4173"
    INDEX 01 01:18:72
  TRACK 87 AUDIO
    TITLE "0:"
    INDEX 01 01:20:22
  TRACK 88 AUDIO
    TITLE "2:cjc102_4174"
    INDEX 01 01:20:55
  TRACK 89 AUDIO
    TITLE "0:"
    INDEX 01 01:21:55
  TRACK 90 AUDIO
    TITLE "2:cjc102_4175"
    INDEX 01 01:22:52
  TRACK 91 AUDIO
    TITLE "0:"
    INDEX 01 01:23:67
  TRACK 92 AUDIO
    TITLE "3:cjc102_4176"
    INDEX 01 01:25:09
  TRACK 93 AUDIO
    TITLE "0:"
    INDEX 01 01:26:19
  TRACK 94 AUDIO
    TITLE "2:cjc102_4177"
    INDEX 01 01:26:56
  TRACK 95 AUDIO
    TITLE "0:"
    INDEX 01 01:27:55
  TRACK 96 AUDIO
    TITLE "2:cjc102_4178"
    INDEX 01 01:28:53
  TRACK 97 AUDIO
    TITLE "0:"
    INDEX 01 01:29:58
  TRACK 98 AUDIO
    TITLE "3:cjc102_4179"
    INDEX 01 01:30:73
  TRACK 99 AUDIO
    TITLE "0:"
    INDEX 01 01:32:29
  TRACK 100 AUDIO
    TITLE "2:cjc102_4180"
    INDEX 01 01:33:11
  TRACK 101 AUDIO
    TITLE "0:"
    INDEX 01 01:34:08
  TRACK 102 AUDIO
    TITLE "2:cjc102_4181"
    INDEX 01 01:35:10
  TRACK 103 AUDIO
    TITLE "0:"
    INDEX 01 01:36:19
  TRACK 104 AUDIO
    TITLE "3:cjc102_4182"
    INDEX 01 01:37:32
  TRACK 105 AUDIO
    TITLE "0:"
    INDEX 01 01:38:55
  TRACK 106 AUDIO
    TITLE "2:cjc102_4183"
    INDEX 01 01:39:08
  TRACK 107 AUDIO
    TITLE "0:"
    INDEX 01 01:41:52
  TRACK 108 AUDIO
    TITLE "3:cjc102_4184"
    INDEX 01 01:42:71
  TRACK 109 AUDIO
    TITLE "0:"
    INDEX 01 01:44:24
  TRACK 110 AUDIO
    TITLE "2:cjc102_4185"
    INDEX 01 01:44:38
  TRACK 111 AUDIO
    TITLE "0:"
    INDEX 01 01:47:40
  TRACK 112 AUDIO
    TITLE "3:cjc102_4186"
    INDEX 01 01:49:26
  TRACK 113 AUDIO
    TITLE "0:"
    INDEX 01 01:50:33
  TRACK 114 AUDIO
    TITLE "2:cjc102_4187"
    INDEX 01 01:50:35
  TRACK 115 AUDIO
    TITLE "0:"
    INDEX 01 01:53:72
